<svg width="20" height="20" viewBox="0 0 20 20" fill="none" xmlns="http://www.w3.org/2000/svg">
<path d="M11 0V3.03C14.39 3.52 17 6.42 17 9.95C17 10.85 16.82 11.7 16.52 12.49L19.12 14.02C19.68 12.78 20 11.4 20 9.95C20 4.77 16.05 0.5 11 0ZM10 16.95C6.13 16.95 3 13.82 3 9.95C3 6.42 5.61 3.52 9 3.03V0C3.94 0.5 0 4.76 0 9.95C0 15.47 4.47 19.95 9.99 19.95C13.3 19.95 16.23 18.34 18.05 15.86L15.45 14.33C14.7976 15.1491 13.9686 15.8101 13.0249 16.2638C12.0812 16.7175 11.0471 16.9521 10 16.95Z" fill="#F6FAFA"/>
</svg>
