<svg width="23" height="20" viewBox="0 0 23 20" fill="none" xmlns="http://www.w3.org/2000/svg">
<path d="M20.5 8.5H23V20H12V8.5H14.5V9.5H20.5V8.5ZM14 13.5H21V12.5H14V13.5ZM14 17.5H21V16.5H14V17.5ZM15.5 8.5V7H19.5V8.5H15.5Z" fill="black"/>
<path d="M6 16C7.1 16 8 16.9 8 18C8 19.1 7.1 20 6 20C4.9 20 4.00977 19.1 4.00977 18C4.00977 16.9 4.9 16 6 16ZM3.26953 0L4.20996 2H19C19.1734 2.0004 19.3435 2.046 19.4941 2.13184C19.6447 2.21773 19.7707 2.34125 19.8594 2.49023C19.948 2.63932 19.9964 2.80901 20 2.98242C20.0035 3.15587 19.9624 3.32786 19.8799 3.48047L18.4902 6H15V8H11V11H7.09961L6.2002 12.6299L6.16992 12.75C6.16992 12.89 6.27996 13 6.41992 13H11V15H6C4.9 15 4 14.1 4 13C4 12.65 4.09001 12.32 4.25 12.04L5.59961 9.58984L2 2H0V0H3.26953Z" fill="black"/>
</svg>
