<svg width="24" height="24" viewBox="0 0 24 24" fill="none" xmlns="http://www.w3.org/2000/svg">
<path fill-rule="evenodd" clip-rule="evenodd" d="M4 3C4 2.73478 4.10536 2.48043 4.29289 2.29289C4.48043 2.10536 4.73478 2 5 2H19C19.2652 2 19.5196 2.10536 19.7071 2.29289C19.8946 2.48043 20 2.73478 20 3V21C20 21.1912 19.9452 21.3783 19.8421 21.5393C19.7391 21.7003 19.592 21.8284 19.4184 21.9083C19.2447 21.9883 19.0518 22.0169 18.8625 21.9906C18.6731 21.9643 18.4953 21.8843 18.35 21.76L17.317 20.875C17.1358 20.7198 16.9051 20.6345 16.6665 20.6345C16.4279 20.6345 16.1972 20.7198 16.016 20.875L14.984 21.759C14.8027 21.9145 14.5718 21.9999 14.333 21.9999C14.0942 21.9999 13.8633 21.9145 13.682 21.759L12.651 20.875C12.4697 20.7195 12.2388 20.6341 12 20.6341C11.7612 20.6341 11.5303 20.7195 11.349 20.875L10.318 21.759C10.1367 21.9145 9.90581 21.9999 9.667 21.9999C9.42819 21.9999 9.19727 21.9145 9.016 21.759L7.984 20.875C7.8028 20.7198 7.57208 20.6345 7.3335 20.6345C7.09492 20.6345 6.8642 20.7198 6.683 20.875L5.651 21.759C5.50582 21.8835 5.32797 21.9638 5.13855 21.9903C4.94913 22.0168 4.75608 21.9884 4.5823 21.9085C4.40852 21.8286 4.2613 21.7006 4.15809 21.5395C4.05488 21.3785 4.00001 21.1913 4 21V3ZM9 6C8.73478 6 8.48043 6.10536 8.29289 6.29289C8.10536 6.48043 8 6.73478 8 7C8 7.26522 8.10536 7.51957 8.29289 7.70711C8.48043 7.89464 8.73478 8 9 8H15C15.2652 8 15.5196 7.89464 15.7071 7.70711C15.8946 7.51957 16 7.26522 16 7C16 6.73478 15.8946 6.48043 15.7071 6.29289C15.5196 6.10536 15.2652 6 15 6H9ZM9 10C8.73478 10 8.48043 10.1054 8.29289 10.2929C8.10536 10.4804 8 10.7348 8 11C8 11.2652 8.10536 11.5196 8.29289 11.7071C8.48043 11.8946 8.73478 12 9 12H15C15.2652 12 15.5196 11.8946 15.7071 11.7071C15.8946 11.5196 16 11.2652 16 11C16 10.7348 15.8946 10.4804 15.7071 10.2929C15.5196 10.1054 15.2652 10 15 10H9ZM10 15C10 14.7348 10.1054 14.4804 10.2929 14.2929C10.4804 14.1054 10.7348 14 11 14H15C15.2652 14 15.5196 14.1054 15.7071 14.2929C15.8946 14.4804 16 14.7348 16 15C16 15.2652 15.8946 15.5196 15.7071 15.7071C15.5196 15.8946 15.2652 16 15 16H11C10.7348 16 10.4804 15.8946 10.2929 15.7071C10.1054 15.5196 10 15.2652 10 15Z" fill="#F6FAFA"/>
</svg>
