<svg width="48" height="48" viewBox="0 0 48 48" fill="none" xmlns="http://www.w3.org/2000/svg">
<path fill-rule="evenodd" clip-rule="evenodd" d="M8 6C8 5.46957 8.21071 4.96086 8.58579 4.58579C8.96086 4.21071 9.46957 4 10 4H38C38.5304 4 39.0391 4.21071 39.4142 4.58579C39.7893 4.96086 40 5.46957 40 6V42C40 42.3823 39.8905 42.7567 39.6843 43.0786C39.4781 43.4006 39.184 43.6567 38.8367 43.8167C38.4895 43.9766 38.1036 44.0337 37.7249 43.9811C37.3462 43.9285 36.9905 43.7685 36.7 43.52L34.634 41.75C34.2716 41.4396 33.8102 41.269 33.333 41.269C32.8558 41.269 32.3944 41.4396 32.032 41.75L29.968 43.518C29.6055 43.8289 29.1436 43.9998 28.666 43.9998C28.1884 43.9998 27.7265 43.8289 27.364 43.518L25.302 41.75C24.9395 41.4391 24.4776 41.2682 24 41.2682C23.5224 41.2682 23.0605 41.4391 22.698 41.75L20.636 43.518C20.2735 43.8289 19.8116 43.9998 19.334 43.9998C18.8564 43.9998 18.3945 43.8289 18.032 43.518L15.968 41.75C15.6056 41.4396 15.1442 41.269 14.667 41.269C14.1898 41.269 13.7284 41.4396 13.366 41.75L11.302 43.518C11.0116 43.767 10.6559 43.9276 10.2771 43.9806C9.89826 44.0336 9.51217 43.9768 9.16461 43.817C8.81705 43.6572 8.5226 43.4011 8.31618 43.0791C8.10976 42.757 8.00003 42.3825 8 42V6ZM18 12C17.4696 12 16.9609 12.2107 16.5858 12.5858C16.2107 12.9609 16 13.4696 16 14C16 14.5304 16.2107 15.0391 16.5858 15.4142C16.9609 15.7893 17.4696 16 18 16H30C30.5304 16 31.0391 15.7893 31.4142 15.4142C31.7893 15.0391 32 14.5304 32 14C32 13.4696 31.7893 12.9609 31.4142 12.5858C31.0391 12.2107 30.5304 12 30 12H18ZM18 20C17.4696 20 16.9609 20.2107 16.5858 20.5858C16.2107 20.9609 16 21.4696 16 22C16 22.5304 16.2107 23.0391 16.5858 23.4142C16.9609 23.7893 17.4696 24 18 24H30C30.5304 24 31.0391 23.7893 31.4142 23.4142C31.7893 23.0391 32 22.5304 32 22C32 21.4696 31.7893 20.9609 31.4142 20.5858C31.0391 20.2107 30.5304 20 30 20H18ZM20 30C20 29.4696 20.2107 28.9609 20.5858 28.5858C20.9609 28.2107 21.4696 28 22 28H30C30.5304 28 31.0391 28.2107 31.4142 28.5858C31.7893 28.9609 32 29.4696 32 30C32 30.5304 31.7893 31.0391 31.4142 31.4142C31.0391 31.7893 30.5304 32 30 32H22C21.4696 32 20.9609 31.7893 20.5858 31.4142C20.2107 31.0391 20 30.5304 20 30Z" fill="black"/>
</svg>
