<svg width="22" height="18" viewBox="0 0 22 18" fill="none" xmlns="http://www.w3.org/2000/svg">
<path d="M2.2 18C1.595 18 1.07727 17.7799 0.6468 17.3396C0.216333 16.8994 0.000733333 16.3695 0 15.75V2.25C0 1.63125 0.2156 1.10175 0.6468 0.6615C1.078 0.22125 1.59573 0.00075 2.2 0H19.8C20.405 0 20.9231 0.2205 21.3543 0.6615C21.7855 1.1025 22.0007 1.632 22 2.25V15.75C22 16.3687 21.7848 16.8986 21.3543 17.3396C20.9238 17.7806 20.4057 18.0007 19.8 18H2.2ZM11 10.125L19.8 4.5V2.25L11 7.875L2.2 2.25V4.5L11 10.125Z" fill="black"/>
</svg>
