<svg width="24" height="24" viewBox="0 0 24 24" fill="none" xmlns="http://www.w3.org/2000/svg">
<path d="M4 22C3.45 22 2.97933 21.8043 2.588 21.413C2.19667 21.0217 2.00067 20.5507 2 20V9C2 8.45 2.196 7.97933 2.588 7.588C2.98 7.19667 3.45067 7.00067 4 7H9V4C9 3.45 9.196 2.97933 9.588 2.588C9.98 2.19667 10.4507 2.00067 11 2H13C13.55 2 14.021 2.196 14.413 2.588C14.805 2.98 15.0007 3.45067 15 4V7H20C20.55 7 21.021 7.196 21.413 7.588C21.805 7.98 22.0007 8.45067 22 9V20C22 20.55 21.8043 21.021 21.413 21.413C21.0217 21.805 20.5507 22.0007 20 22H4ZM6 18H12V17.55C12 17.2667 11.9207 17.004 11.762 16.762C11.6033 16.52 11.3827 16.3327 11.1 16.2C10.7667 16.05 10.4293 15.9377 10.088 15.863C9.74667 15.7883 9.384 15.7507 9 15.75C8.616 15.7493 8.25333 15.787 7.912 15.863C7.57067 15.939 7.23333 16.0513 6.9 16.2C6.61667 16.3333 6.39567 16.521 6.237 16.763C6.07833 17.005 5.99933 17.2673 6 17.55V18ZM14 16.5H18V15H14V16.5ZM9 15C9.41667 15 9.771 14.8543 10.063 14.563C10.355 14.2717 10.5007 13.9173 10.5 13.5C10.4993 13.0827 10.3537 12.7287 10.063 12.438C9.77233 12.1473 9.418 12.0013 9 12C8.582 11.9987 8.228 12.1447 7.938 12.438C7.648 12.7313 7.502 13.0853 7.5 13.5C7.498 13.9147 7.644 14.269 7.938 14.563C8.232 14.857 8.586 15.0027 9 15ZM14 13.5H18V12H14V13.5ZM11 9H13V4H11V9Z" fill="#F6FAFA"/>
</svg>
